<svg width="17" height="17" viewBox="0 0 17 17" fill="none" xmlns="http://www.w3.org/2000/svg">
<path d="M0 4.24999V0H4.24999V1.7H1.7V4.24999H0ZM0 17V12.75H1.7V15.3H4.24999V17H0ZM12.75 17V15.3H15.3V12.75H17V17H12.75ZM15.3 4.24999V1.7H12.75V0H17V4.24999H15.3ZM13.175 13.175H14.45V14.45H13.175V13.175ZM13.175 10.625H14.45V11.9H13.175V10.625ZM11.9 11.9H13.175V13.175H11.9V11.9ZM10.625 13.175H11.9V14.45H10.625V13.175ZM9.34999 11.9H10.625V13.175H9.34999V11.9ZM11.9 9.34999H13.175V10.625H11.9V9.34999ZM10.625 10.625H11.9V11.9H10.625V10.625ZM9.34999 9.34999H10.625V10.625H9.34999V9.34999ZM14.45 2.55V7.64999H9.34999V2.55H14.45ZM7.64999 9.34999V14.45H2.55V9.34999H7.64999ZM7.64999 2.55V7.64999H2.55V2.55H7.64999ZM6.37499 13.175V10.625H3.825V13.175H6.37499ZM6.37499 6.37499V3.825H3.825V6.37499H6.37499ZM13.175 6.37499V3.825H10.625V6.37499H13.175Z" fill="#31332C"/>
</svg>
