<svg width="114" height="114" viewBox="0 0 114 114" fill="none" xmlns="http://www.w3.org/2000/svg">
<g opacity="0.1">
<path d="M55.1844 113.879C51.5055 113.879 47.7986 113.461 44.0639 112.625C40.3292 111.788 36.5109 110.59 32.609 109.029C33.9468 95.5396 37.8487 82.942 44.3148 71.2362C50.7808 59.5304 59.0864 49.2182 69.2314 40.2995C56.9682 46.5426 46.3493 54.7924 37.3749 65.0488C28.4005 75.3053 22.1295 87.0111 18.562 100.166C18.1161 99.8318 17.698 99.4694 17.3078 99.0792C16.9176 98.6891 16.4996 98.271 16.0537 97.8251C10.8139 92.5853 6.82838 86.7324 4.09703 80.2664C1.36568 73.8003 0 67.0556 0 60.0321C0 52.4512 1.50503 45.2048 4.51509 38.2928C7.52515 31.3808 11.7058 25.2492 17.057 19.898C26.0872 10.8678 37.793 4.98702 52.1744 2.25567C66.5558 -0.475685 86.7343 -0.726523 112.71 1.50315C114.717 28.1478 114.382 48.4656 111.707 62.4569C109.031 76.4481 103.234 87.903 94.3152 96.8217C88.8525 102.284 82.7488 106.493 76.004 109.447C69.2592 112.402 62.3194 113.879 55.1844 113.879Z" fill="#EAFFE2"/>
</g>
</svg>
